<svg width="59" height="92" viewBox="0 0 59 92" fill="none" xmlns="http://www.w3.org/2000/svg">
<path d="M58.7199 39.1799L49.2625 1.03252C49.1121 0.425791 48.5675 0 47.9428 0L10.8424 0C10.2174 0 9.67292 0.426151 9.52276 1.03252L0.0653509 39.1799C-0.0352906 39.5861 0.0565283 40.0159 0.314163 40.3452C0.571798 40.6744 0.966802 40.8671 1.38521 40.8671H24.8667V48.7722H24.0783C21.6617 48.7722 19.341 49.7955 17.7109 51.5795C16.0814 53.3634 15.2716 55.7669 15.4896 58.1729L17.8033 83.7898H15.042C14.2913 83.7898 13.6822 84.3987 13.6822 85.1497V90.8202C13.6822 91.5709 14.2911 92.18 15.042 92.18H43.7432C44.494 92.18 45.103 91.5711 45.103 90.8202V85.1497C45.103 84.3989 44.4941 83.7898 43.7432 83.7898H40.9819L43.296 58.1735C43.5138 55.7669 42.7042 53.3634 41.0745 51.5795C39.4448 49.7955 37.1239 48.7724 34.7074 48.7724H33.9187V40.8669H42.4379V50.3132C42.4379 51.0639 43.047 51.673 43.7977 51.673C44.5485 51.673 45.1576 51.0641 45.1576 50.3132V40.8669H57.4007C57.8191 40.8669 58.2141 40.6744 58.4718 40.345C58.7289 40.0155 58.8207 39.5858 58.7199 39.1799ZM42.383 86.5091V89.46H16.4015V86.5091H42.383ZM34.7069 51.4917C36.3857 51.4917 37.9339 52.174 39.0662 53.4136C40.1982 54.6528 40.7384 56.256 40.5869 57.9282L38.2508 83.7897H20.5336L18.1979 57.9277C18.0465 56.256 18.5866 54.6528 19.7183 53.4136C20.8506 52.1742 22.3987 51.4917 24.0776 51.4917H34.7069ZM27.5862 48.772V40.8669H31.1988V48.772H27.5862ZM3.12294 38.1474L11.9063 2.71966H46.8787L55.6623 38.1474H3.12294Z" fill="white"/>
</svg>
